# Blender v2.83.12 OBJ File: 'Paintings.blend'
# www.blender.org
mtllib DeChirico.mtl
o Painting_Cube
v 3.722806 -0.045548 -2.066869
v 3.722806 0.045548 -2.066869
v 3.722808 -0.045548 2.066867
v 3.722808 0.045548 2.066867
v -3.722808 -0.045548 -2.066867
v -3.722808 0.045548 -2.066867
v -3.722806 -0.045548 2.066869
v -3.722806 0.045548 2.066869
vt 1.001134 0.013106
vt -0.001134 0.013106
vt -0.001134 0.986894
vt 1.001134 0.986894
vt 1.001134 0.986894
vt -0.001134 0.986894
vt -0.001134 0.013106
vt 1.001134 0.013106
vn 0.0000 1.0000 0.0000
vn -0.0000 0.0000 -1.0000
vn 1.0000 0.0000 -0.0000
vn 0.0000 -1.0000 0.0000
vn -1.0000 0.0000 0.0000
vn 0.0000 0.0000 1.0000
g Painting_Cube_Material
usemtl Material
s off
f 1/1/1 5/2/1 7/3/1 3/4/1
f 4/5/2 3/4/2 7/3/2 8/6/2
f 8/6/3 7/3/3 5/2/3 6/7/3
f 6/7/4 2/8/4 4/5/4 8/6/4
f 2/8/5 1/1/5 3/4/5 4/5/5
f 6/7/6 5/2/6 1/1/6 2/8/6
o Frame_Cube.001
v -4.090373 -0.028029 2.387923
v -4.090373 0.084803 2.387923
v -4.090373 -0.028029 -2.387923
v -4.090373 0.084803 -2.387923
v 4.090373 -0.028029 2.387923
v 4.090373 0.084803 2.387923
v 4.090373 -0.028029 -2.387923
v 4.090373 0.084803 -2.387923
v -4.090373 -0.028029 -2.091372
v -4.090373 0.084803 -2.091372
v 4.090373 -0.028029 -2.091372
v 4.090373 0.084803 -2.091372
v -4.090373 -0.028029 2.109758
v 4.090373 0.084803 2.109758
v -4.090373 0.084803 2.109758
v 4.090373 -0.028029 2.109758
v -3.737870 -0.028029 -2.387923
v -3.737870 0.084803 -2.387923
v -3.737870 -0.028029 2.387923
v -3.737870 0.084803 2.387923
v -3.737870 0.084803 -2.091372
v -3.737870 -0.028029 -2.091372
v -3.737870 0.084803 2.109758
v -3.737870 -0.028029 2.109758
v 3.753758 0.084803 -2.387923
v 3.753758 -0.028029 2.387923
v 3.753758 0.084803 -2.091372
v 3.753758 0.084803 2.109758
v 3.753758 -0.028029 -2.387923
v 3.753758 0.084803 2.387923
v 3.753758 -0.028029 -2.091372
v 3.753758 -0.028029 2.109758
v -4.090373 -0.028029 2.109758
v -4.090373 -0.028029 2.387923
v -3.737870 -0.028029 -2.387923
v -4.090373 -0.028029 -2.387923
v 4.090373 -0.028029 -2.091372
v 4.090373 -0.028029 -2.387923
v 3.753758 -0.028029 2.387923
v 4.090373 -0.028029 2.387923
v -4.090373 -0.028029 -2.091372
v -3.737870 -0.028029 -2.091372
v 4.090373 -0.028029 2.109758
v -3.737870 -0.028029 2.109758
v -3.737870 -0.028029 2.387923
v 3.753758 -0.028029 -2.387923
v 3.753758 -0.028029 -2.091372
v 3.753758 -0.028029 2.109758
v -4.056312 -0.057310 2.136636
v -4.056312 -0.057310 2.361044
v -3.771931 -0.057310 -2.359268
v -4.056312 -0.057310 -2.359268
v 4.057847 -0.057310 -2.120027
v 4.057847 -0.057310 -2.359268
v 3.786284 -0.057310 2.361044
v 4.057847 -0.057310 2.361044
v -4.056312 -0.057310 -2.120027
v -3.771931 -0.057310 -2.120027
v 4.057847 -0.057310 2.136636
v -3.771931 -0.057310 2.136636
v -3.771931 -0.057310 2.361044
v 3.786284 -0.057310 -2.359268
v 3.786284 -0.057310 -2.120027
v 3.786284 -0.057310 2.136636
v 4.090373 -0.041398 2.109758
v 4.090373 -0.041398 -2.091372
v -3.737870 -0.041398 -2.091372
v -4.090373 -0.041398 -2.091372
v -4.090373 -0.041398 2.109758
v -3.737870 -0.041398 2.109758
v 3.753758 -0.041398 -2.387923
v -3.737870 -0.041398 -2.387923
v 3.753758 -0.041398 -2.091372
v 3.753758 -0.041398 2.109758
v -3.737870 -0.041398 2.387923
v 3.753758 -0.041398 2.387923
v 4.090373 -0.054820 2.109758
v 4.090373 -0.054820 -2.091372
v -3.737870 -0.054820 -2.091372
v -4.090373 -0.054820 -2.091372
v -4.090373 -0.054820 2.109758
v -3.737870 -0.054820 2.109758
v 3.753758 -0.054820 -2.387923
v -3.737870 -0.054820 -2.387923
v 3.753758 -0.054820 -2.091372
v 3.753758 -0.054820 2.109758
v -3.737870 -0.054820 2.387923
v 3.753758 -0.054820 2.387923
vt 0.375000 0.234477
vt 0.625000 0.234477
vt 0.625000 0.250000
vt 0.375000 0.250000
vt 0.375000 0.489713
vt 0.625000 0.489713
vt 0.625000 0.500000
vt 0.375000 0.500000
vt 0.375000 0.735439
vt 0.625000 0.735439
vt 0.625000 0.750000
vt 0.375000 0.750000
vt 0.375000 0.989228
vt 0.625000 0.989228
vt 0.625000 1.000000
vt 0.375000 1.000000
vt 0.029334 0.024400
vt 0.069723 0.024400
vt 0.069723 0.024400
vt 0.029334 0.024400
vt 0.864228 0.735439
vt 0.875000 0.735439
vt 0.875000 0.750000
vt 0.864228 0.750000
vt 0.864228 0.500000
vt 0.875000 0.500000
vt 0.875000 0.515523
vt 0.864228 0.515523
vt 0.069723 0.961732
vt 0.029334 0.961732
vt 0.029334 0.961732
vt 0.069723 0.961732
vt 0.625000 0.515523
vt 0.375000 0.515523
vt 0.375000 0.014561
vt 0.625000 0.014561
vt 0.375000 0.000000
vt 0.625000 0.000000
vt 0.135772 0.735439
vt 0.125000 0.735439
vt 0.125000 0.735439
vt 0.135772 0.735439
vt 0.364713 0.515523
vt 0.135772 0.515523
vt 0.135772 0.515523
vt 0.364713 0.515523
vt 0.635287 0.515523
vt 0.635287 0.735439
vt 0.928097 0.961732
vt 0.928097 0.907138
vt 0.928097 0.907138
vt 0.928097 0.961732
vt 0.635287 0.500000
vt 0.635287 0.750000
vt 0.029334 0.907138
vt 0.029334 0.907138
vt 0.375000 0.760287
vt 0.625000 0.760287
vt 0.625000 0.260772
vt 0.375000 0.260772
vt 0.069723 0.082603
vt 0.928097 0.082603
vt 0.928097 0.907138
vt 0.069723 0.907138
vt 0.125000 0.515523
vt 0.125000 0.515523
vt 0.135772 0.500000
vt 0.135772 0.500000
vt 0.125000 0.735439
vt 0.125000 0.750000
vt 0.125000 0.750000
vt 0.135772 0.500000
vt 0.125000 0.500000
vt 0.125000 0.500000
vt 0.375000 0.515523
vt 0.375000 0.500000
vt 0.364713 0.750000
vt 0.375000 0.750000
vt 0.364713 0.750000
vt 0.125000 0.515523
vt 0.135772 0.515523
vt 0.375000 0.735439
vt 0.135772 0.735439
vt 0.135772 0.750000
vt 0.135772 0.750000
vt 0.364713 0.500000
vt 0.364713 0.500000
vt 0.364713 0.515523
vt 0.364713 0.735439
vt 0.364713 0.735439
vt 0.966666 0.907138
vt 0.966666 0.961732
vt 0.928097 0.024400
vt 0.966666 0.024400
vt 0.966666 0.082603
vt 0.928097 0.082603
vt 0.069723 0.082603
vt 0.029334 0.082603
vt 0.069723 0.907138
vt 0.069723 0.082603
vt 0.966666 0.024400
vt 0.966666 0.082603
vt 0.069723 0.907138
vt 0.966666 0.961732
vt 0.928097 0.024400
vt 0.029334 0.082603
vt 0.928097 0.082603
vt 0.966666 0.907138
vt 0.364713 0.735439
vt 0.364713 0.515523
vt 0.364713 0.735439
vt 0.135772 0.515523
vt 0.375000 0.735439
vt 0.375000 0.735439
vt 0.375000 0.260772
vt 0.375000 0.489713
vt 0.375000 0.489713
vt 0.375000 0.260772
vt 0.135772 0.750000
vt 0.364713 0.500000
vt 0.375000 0.234477
vt 0.375000 0.014561
vt 0.375000 0.515523
vt 0.364713 0.750000
vt 0.375000 0.989228
vt 0.375000 0.760287
vt 0.928097 0.082603
vt 0.966666 0.082603
vt 0.966666 0.907138
vt 0.928097 0.907138
vt 0.029334 0.082603
vt 0.069723 0.082603
vt 0.069723 0.907138
vt 0.029334 0.907138
vt 0.069723 0.024400
vt 0.928097 0.024400
vt 0.928097 0.961732
vt 0.069723 0.961732
vt 0.135772 0.735439
vt 0.364713 0.500000
vt 0.375000 0.515523
vt 0.364713 0.750000
vt 0.135772 0.500000
vt 0.125000 0.515523
vt 0.135772 0.750000
vt 0.375000 0.234477
vt 0.375000 0.014561
vt 0.375000 0.989228
vt 0.375000 0.760287
vt 0.125000 0.735439
vn -1.0000 0.0000 0.0000
vn 0.0000 0.0000 -1.0000
vn 1.0000 0.0000 0.0000
vn 0.0000 0.0000 1.0000
vn 0.0000 -0.6994 -0.7147
vn 0.0000 1.0000 0.0000
vn 0.0000 -0.6762 0.7367
vn -0.6691 -0.7432 0.0000
vn -0.6519 -0.7583 0.0000
vn 0.0000 -1.0000 0.0000
vn 0.6519 -0.7583 0.0000
vn 0.6691 -0.7432 0.0000
vn 0.0000 -0.6994 0.7147
vn 0.0000 -0.6762 -0.7367
g Frame_Cube.001_Material.001
usemtl Material.001
s off
f 49/9/7 18/10/7 12/11/7 44/12/7
f 54/13/8 33/14/8 16/15/8 46/16/8
f 51/17/9 22/18/9 14/19/9 48/20/9
f 53/21/10 28/22/10 10/23/10 42/24/10
f 11/25/11 25/26/11 59/27/11 60/28/11
f 31/29/12 23/30/12 10/31/12 28/32/12
f 26/33/12 12/34/12 18/35/12 29/36/12
f 27/37/13 9/38/13 58/39/13 69/40/13
f 46/16/9 16/15/9 20/41/9 45/42/9
f 41/43/7 23/44/7 18/10/7 49/9/7
f 42/45/7 10/46/7 23/44/7 41/43/7
f 29/36/12 18/35/12 23/30/12 31/29/12
f 52/47/10 41/48/10 77/49/10 78/50/10
f 45/42/9 20/41/9 22/18/9 51/17/9
f 55/51/10 50/52/10 75/53/10 81/54/10
f 35/55/12 29/36/12 31/29/12 36/56/12
f 34/57/14 40/58/14 72/59/14 63/60/14
f 33/61/12 26/33/12 29/36/12 35/55/12
f 36/56/12 31/29/12 28/32/12 38/62/12
f 9/38/15 21/63/15 57/64/15 58/39/15
f 47/65/10 38/66/10 28/22/10 53/21/10
f 44/12/8 12/11/8 26/67/8 43/68/8
f 48/20/10 14/19/10 38/66/10 47/65/10
f 22/18/12 36/56/12 38/62/12 14/19/12
f 16/15/12 33/61/12 35/55/12 20/41/12
f 20/41/12 35/55/12 36/56/12 22/18/12
f 50/69/16 55/70/16 56/71/16 52/72/16
f 49/73/8 50/52/8 75/53/8 76/74/8
f 50/52/7 43/75/7 80/76/7 75/53/7
f 43/68/8 26/67/8 33/14/8 54/13/8
f 21/77/10 9/78/10 42/79/10 41/48/10
f 25/80/10 11/81/10 44/82/10 43/75/10
f 19/83/10 15/84/10 46/16/10 45/42/10
f 34/85/10 13/86/10 48/20/10 47/87/10
f 11/81/10 17/88/10 49/73/10 44/82/10
f 17/88/10 30/89/10 50/52/10 49/73/10
f 13/86/10 24/90/10 51/17/10 48/20/10
f 32/91/10 21/77/10 41/48/10 52/47/10
f 9/78/10 27/92/10 53/93/10 42/79/10
f 30/89/10 25/80/10 43/75/10 50/52/10
f 27/92/10 32/91/10 52/47/10 53/93/10
f 15/84/10 37/94/10 54/95/10 46/16/10
f 39/96/10 19/83/10 45/42/10 55/51/10
f 24/90/10 40/97/10 56/98/10 51/17/10
f 37/94/10 39/96/10 55/51/10 54/95/10
f 40/97/10 34/85/10 47/87/10 56/98/10
f 72/59/16 67/99/16 64/100/16 63/60/16
f 70/101/16 62/102/16 61/103/16 71/104/16
f 60/28/16 59/27/16 66/105/16 65/106/16
f 57/64/16 68/107/16 69/40/16 58/39/16
f 25/26/17 30/108/17 66/105/17 59/27/17
f 15/109/18 19/110/18 61/103/18 62/102/18
f 32/111/17 27/37/17 69/40/17 68/107/17
f 13/112/13 34/57/13 63/60/13 64/100/13
f 37/113/11 15/109/11 62/102/11 70/101/11
f 17/114/15 11/25/15 60/28/15 65/106/15
f 19/110/19 39/115/19 71/104/19 61/103/19
f 30/108/19 17/114/19 65/106/19 66/105/19
f 40/58/20 24/116/20 67/99/20 72/59/20
f 24/116/18 13/112/18 64/100/18 67/99/18
f 39/115/14 37/113/14 70/101/14 71/104/14
f 21/63/20 32/111/20 68/107/20 57/64/20
f 82/117/7 81/54/7 93/118/7 94/119/7
f 81/54/10 75/53/10 87/120/10 93/118/10
f 73/121/10 82/117/10 94/119/10 85/122/10
f 80/123/8 79/124/8 91/125/8 92/126/8
f 53/93/7 52/47/7 78/50/7 83/127/7
f 56/98/7 55/51/7 81/54/7 82/117/7
f 54/95/9 55/51/9 81/54/9 79/128/9
f 41/43/7 49/9/7 76/129/7 77/130/7
f 52/47/8 56/98/8 82/117/8 78/50/8
f 55/51/8 45/42/8 74/131/8 81/54/8
f 43/68/8 54/13/8 79/124/8 80/123/8
f 56/98/9 47/87/9 84/132/9 82/117/9
f 50/52/9 52/47/9 78/50/9 75/53/9
f 45/42/9 51/17/9 73/121/9 74/131/9
f 51/17/10 56/98/10 82/117/10 73/121/10
f 47/65/10 53/21/10 83/133/10 84/134/10
f 93/135/16 86/136/16 85/137/16 94/138/16
f 88/139/16 87/140/16 90/141/16 89/142/16
f 92/143/16 91/144/16 93/135/16 87/140/16
f 90/141/16 94/138/16 96/145/16 95/146/16
f 78/50/8 82/117/8 94/119/8 90/147/8
f 79/128/9 81/54/9 93/118/9 91/148/9
f 75/53/9 78/50/9 90/147/9 87/120/9
f 74/131/9 73/121/9 85/122/9 86/149/9
f 82/117/9 84/132/9 96/150/9 94/119/9
f 75/53/7 80/76/7 92/151/7 87/120/7
f 76/74/8 75/53/8 87/120/8 88/152/8
f 83/127/7 78/50/7 90/147/7 95/153/7
f 77/130/7 76/129/7 88/154/7 89/155/7
f 84/134/10 83/133/10 95/156/10 96/157/10
f 78/50/10 77/49/10 89/158/10 90/147/10
f 81/54/8 74/131/8 86/149/8 93/118/8
